<?xml version="1.0" encoding="UTF-8" standalone="no"?><!DOCTYPE svg PUBLIC "-//W3C//DTD SVG 1.1//EN" "http://www.w3.org/Graphics/SVG/1.1/DTD/svg11.dtd"><svg width="100%" height="100%" viewBox="0 0 2500 2500" version="1.1" xmlns="http://www.w3.org/2000/svg" xmlns:xlink="http://www.w3.org/1999/xlink" xml:space="preserve" xmlns:serif="http://www.serif.com/" style="fill-rule:evenodd;clip-rule:evenodd;stroke-linejoin:round;stroke-miterlimit:2;"><g><g id="Left"><path d="M1647.98,2505.45l833.38,-3.199l-1203.61,-2504.72l370.234,2507.92Z" style="fill:#ededec;"/><path d="M1953.88,2119.37l-305.371,382.223l829.409,0.773l-524.038,-382.996Z" style="fill:#d4d3d3;"/><path d="M1648.51,2497.65l-373.455,-2495.84l683.962,2121.24l-310.507,374.606Z" style="fill:#b5b2b2;"/></g><g id="right"><path d="M859.225,2505.45l-838.912,-3.199l1211.6,-2504.72l-372.692,2507.92Z" style="fill:#ededec;"/><path d="M554.894,2120.86l307.789,377.18l-835.978,0.762l528.189,-377.942Z" style="fill:#d4d3d3;"/><path d="M858.918,2496.27l369.248,-2495.2l-676.258,2120.69l307.01,374.508Z" style="fill:#b5b2b2;"/></g></g><g><path d="M21.719,2499.64c186.952,-468.014 471.852,-784.568 523.629,-841.019c293.416,-319.905 487.375,-396.638 668.667,-468.483c506.762,-200.827 1092.25,-198.2 1092.25,-198.2c-227.362,36.597 -736.147,154.648 -946.597,354.185c-104.595,99.172 -206.909,203.77 -311.613,436.607c-100.745,224.034 -192.647,609.078 -178.533,719.938l-847.803,-3.028Z" style="fill:#fb1313;"/><path d="M564.814,2127.07c51.357,-146.918 187.64,-382.672 333.031,-547.512c224.228,-254.223 488.658,-390.617 696.725,-460.947c223.678,-75.606 452.879,-99.404 683.536,-125.212c-264.791,58.434 -591.895,143.279 -831.364,282.612c-200.64,143.232 -329.013,324.213 -411.291,526.174c-93.417,226.453 -148.172,456.35 -170.72,689.116l-299.917,-364.231Z" style="fill:#c80303;"/><path d="M19.899,2501.57l544.433,-374.5l306.064,374.362l-850.497,0.138Z" style="fill:#b50303;"/></g></svg>